<svg width="35" height="35" viewBox="0 0 35 35" fill="none" xmlns="http://www.w3.org/2000/svg">
<path d="M27.5 10.9375V8.75C27.5 3.9252 23.014 0 17.5 0C11.9859 0 7.5 3.9252 7.5 8.75V10.9375H0V29.5312C0 32.5516 2.7982 35 6.25 35H28.75C32.2018 35 35 32.5516 35 29.5312V10.9375H27.5ZM12.5 8.75C12.5 6.3376 14.743 4.375 17.5 4.375C20.257 4.375 22.5 6.3376 22.5 8.75V10.9375H12.5V8.75ZM25 16.9531C23.9645 16.9531 23.125 16.2186 23.125 15.3125C23.125 14.4064 23.9645 13.6719 25 13.6719C26.0355 13.6719 26.875 14.4064 26.875 15.3125C26.875 16.2186 26.0355 16.9531 25 16.9531ZM10 16.9531C8.96445 16.9531 8.125 16.2186 8.125 15.3125C8.125 14.4064 8.96445 13.6719 10 13.6719C11.0355 13.6719 11.875 14.4064 11.875 15.3125C11.875 16.2186 11.0355 16.9531 10 16.9531Z" fill="white"/>
</svg>
