<svg width="35" height="34" viewBox="0 0 35 34" fill="none" xmlns="http://www.w3.org/2000/svg">
<path d="M17.5 16.9785C23.0234 16.9785 27.5 13.2294 27.5 8.60352C27.5 3.97764 23.0234 0.228516 17.5 0.228516C11.9766 0.228516 7.5 3.97764 7.5 8.60352C7.5 13.2294 11.9766 16.9785 17.5 16.9785ZM24.5 19.0723H23.1953C21.4609 19.7396 19.5312 20.1191 17.5 20.1191C15.4688 20.1191 13.5469 19.7396 11.8047 19.0723H10.5C4.70312 19.0723 0 23.0111 0 27.866V30.5879C0 32.3218 1.67969 33.7285 3.75 33.7285H31.25C33.3203 33.7285 35 32.3218 35 30.5879V27.866C35 23.0111 30.2969 19.0723 24.5 19.0723Z" fill="white"/>
</svg>
