<svg width="41" height="49" viewBox="0 0 41 49" fill="none" xmlns="http://www.w3.org/2000/svg">
<path d="M20.5681 11.7786C26.2908 11.7786 30.9067 17.3132 30.9067 24.1748C30.9067 31.0364 26.2908 36.571 20.5681 36.571C14.8454 36.571 10.2294 31.0364 10.2294 24.1748C10.2294 17.3132 14.8454 11.7786 20.5681 11.7786ZM20.5681 32.2339C24.2662 32.2339 27.2896 28.6197 27.2896 24.1748C27.2896 19.7298 24.2752 16.1156 20.5681 16.1156C16.8609 16.1156 13.8466 19.7298 13.8466 24.1748C13.8466 28.6197 16.8699 32.2339 20.5681 32.2339ZM7.39505 11.2715C7.39505 12.879 8.47481 14.1629 9.80651 14.1629C11.1472 14.1629 12.218 12.8682 12.218 11.2715C12.218 9.67476 11.1382 8.38012 9.80651 8.38012C8.47481 8.38012 7.39505 9.67476 7.39505 11.2715ZM0.547604 14.206C0.700569 10.3329 1.4384 6.90206 3.80487 4.07543C6.16233 1.24879 9.02368 0.364118 12.254 0.169922C15.5832 -0.0566406 25.5619 -0.0566406 28.8912 0.169922C32.1125 0.35333 34.9738 1.238 37.3403 4.06464C39.7067 6.89128 40.4356 10.3221 40.5975 14.1952C40.7865 18.187 40.7865 30.1517 40.5975 34.1435C40.4446 38.0166 39.7067 41.4475 37.3403 44.2741C34.9738 47.1007 32.1215 47.9854 28.8912 48.1796C25.5619 48.4062 15.5832 48.4062 12.254 48.1796C9.02368 47.9962 6.16233 47.1115 3.80487 44.2741C1.4474 41.4475 0.709568 38.0166 0.547604 34.1435C0.358646 30.1517 0.358646 18.1978 0.547604 14.206ZM4.84863 38.4266C5.55047 40.5412 6.90916 42.1703 8.68176 43.0226C11.3362 44.2849 17.6347 43.9936 20.5681 43.9936C23.5014 43.9936 29.809 44.2741 32.4544 43.0226C34.218 42.1811 35.5767 40.552 36.2875 38.4266C37.3403 35.244 37.0973 27.6919 37.0973 24.1748C37.0973 20.6576 37.3313 13.0948 36.2875 9.9229C35.5857 7.80831 34.227 6.17922 32.4544 5.32692C29.8 4.06464 23.5014 4.35593 20.5681 4.35593C17.6347 4.35593 11.3272 4.07543 8.68176 5.32692C6.91816 6.16843 5.55947 7.79753 4.84863 9.9229C3.79587 13.1056 4.03881 20.6576 4.03881 24.1748C4.03881 27.6919 3.79587 35.2547 4.84863 38.4266Z" fill="#FF6500"/>
</svg>
