<svg width="41" height="41" viewBox="0 0 41 41" fill="none" xmlns="http://www.w3.org/2000/svg">
<path d="M36.1873 10.6214C36.2129 11.0509 36.2129 11.4804 36.2129 11.9099C36.2129 25.0096 27.8955 40.1036 12.6937 40.1036C8.01033 40.1036 3.65969 38.4775 0 35.6552C0.66542 35.7472 1.30516 35.7779 1.99618 35.7779C5.86054 35.7779 9.4179 34.2133 12.2586 31.5443C8.62455 31.4522 5.57907 28.5991 4.52978 24.6722C5.04166 24.7642 5.55347 24.8256 6.09096 24.8256C6.83311 24.8256 7.57533 24.7028 8.26628 24.4882C4.47865 23.5677 1.63783 19.5796 1.63783 14.763V14.6404C2.73825 15.3766 4.01797 15.8368 5.37425 15.8981C3.14773 14.1187 1.68904 11.0816 1.68904 7.64554C1.68904 5.80485 2.09843 4.11753 2.81506 2.64495C6.88423 8.65795 13.0008 12.5847 19.8594 13.0143C19.7315 12.278 19.6547 11.5111 19.6547 10.7442C19.6547 5.2833 23.34 0.834953 27.921 0.834953C30.301 0.834953 32.4507 2.03142 33.9607 3.96417C35.8289 3.53469 37.6203 2.70633 39.2071 1.57125C38.5928 3.87219 37.2877 5.80495 35.573 7.03201C37.2365 6.81736 38.8488 6.26502 40.3331 5.49814C39.2073 7.46149 37.7996 9.2101 36.1873 10.6214Z" fill="#FF6500"/>
</svg>
